<?xml version="1.0" encoding="utf-8"?>
<!-- Generator: Adobe Illustrator 19.0.0, SVG Export Plug-In . SVG Version: 6.00 Build 0)  -->
<svg version="1.1" id="Capa_1" xmlns="http://www.w3.org/2000/svg" xmlns:xlink="http://www.w3.org/1999/xlink" x="0px" y="0px"
	 viewBox="0 0 1045.8 145.3" style="enable-background:new 0 0 1045.8 145.3;" xml:space="preserve">
<style type="text/css">
	.st0{fill:#022362;}
</style>
<g id="XMLID_125_">
	<path id="XMLID_155_" class="st0" d="M70.9,66.2h71.3v5.3c0,39.1-32.1,70.9-71.3,70.9S0,110.6,0,71.5C0,32.4,31.8,0.6,70.9,0.6
		c19.5,0,37.1,7.8,49.9,20.4l-2.6,2.5C106.1,11.6,89.4,4.2,70.9,4.2C33.7,4.2,3.6,34.2,3.6,71.5c0,37.2,30.1,67.3,67.3,67.3
		s67.3-31,67.3-67.3v-1.3H70.9V66.2z"/>
	<path id="XMLID_153_" class="st0" d="M171.5,0.6h88.3v3.8h-84.7v63.5h78.8v3.8h-78.8v66.9h84.7v3.8h-88.3V0.6z"/>
	<path id="XMLID_151_" class="st0" d="M542.2,47.5c-5.9-5.9-14.2-9.3-23.8-9.3c-19.3,0-33.3,14-33.3,33.3c0,19.3,14,33.3,33.3,33.3
		c9.6,0,18-3.4,23.8-9.5l26.5,26.1c-12.9,12.9-30.6,21-50.3,21c-39.1,0-70.9-31.8-70.9-70.9c0-39.1,31.8-70.9,70.9-70.9
		c19.5,0,37.1,7.8,49.9,20.6L542.2,47.5z"/>
	<path id="XMLID_149_" class="st0" d="M830.9,53.2l57.7-52.6h16.8v141.8h-37.4V69.6l-37.1,33.8l-37.2-33.7v72.6h-37.4V0.6H773
		L830.9,53.2z"/>
	<path id="XMLID_146_" class="st0" d="M933.9,0.6h59.7c28.7,0,52.2,23.4,52.2,52.2c0,28.5-23.3,52-51.4,52h-23.3v37.6h-37.2V0.6z
		 M971.2,72.6h23.1c11.3,0,20.4-8.9,20.4-20.2c0-11.3-9.1-20.4-20.4-20.4h-23.1V72.6z"/>
	<g id="XMLID_134_">
		<g id="XMLID_141_">
			<g id="XMLID_142_">
				<path id="XMLID_143_" class="st0" d="M713.6,86.3c-7.8,0-17-1.8-19.6-6.9c-1.6-3.1,0-6.4,1.6-8.7c5.9-8.2,9-17.3,9-26.4
					c0-23.8-19.4-43.3-43.3-43.3c-23.8,0-43.3,19.4-43.3,43.3c0,9.1,3.1,18.2,9,26.4c1.6,2.3,3.2,5.6,1.6,8.7
					c-2.6,5.1-11.9,6.9-19.6,6.9c-8.3,0-15,6.7-15,15s6.7,15,15,15c4.3,0,10.3-1,15.4-2.4c-1.4,1-2.8,2.2-4.2,3.1
					c-5.9,4.2-7.8,11.1-4.9,17.8c1.7,4,5,7.1,9,8.5c3.7,1.3,7.6,1.1,11-0.7c10.1-5.3,16.6-14.3,21.4-20.9c1.4-1.9,3.2-4.4,4.4-5.6
					c1.2,1.2,3,3.7,4.4,5.6c4.8,6.6,11.3,15.5,21.4,20.9c2,1,4.1,1.6,6.3,1.6c1.6,0,3.2-0.3,4.8-0.8c4.1-1.4,7.3-4.5,9-8.5
					c2.9-6.7,1-13.6-4.9-17.8c-1.4-1-2.8-2.1-4.2-3.1c5.1,1.3,11.1,2.4,15.4,2.4c8.3,0,15-6.7,15-15S721.9,86.3,713.6,86.3z
					 M713.6,107.6c-5.3,0-15-2.2-19.2-4.1c-3.8-1.6-8.1-0.2-10,3.3c-1.9,3.5-0.8,7.5,2.7,9.9c1,0.7,2.7,2,4.5,3.4
					c1.7,1.3,3.7,2.8,5.6,4.2c3.2,2.3,2.8,5.2,2,7.2c-0.7,1.7-2.2,3.1-3.9,3.7c-1,0.3-2.5,0.6-4-0.2c-8.3-4.4-14.1-12.4-18.4-18.3
					c-4.1-5.7-7.1-9.7-11.5-9.7c-4.4,0-7.4,4.1-11.5,9.7c-4.3,5.9-10.1,13.9-18.4,18.3c-1.5,0.8-3,0.6-4,0.2c-1.7-0.6-3.2-2-3.9-3.7
					c-0.9-2-1.2-4.9,2-7.2c1.9-1.3,3.8-2.8,5.6-4.2c1.8-1.4,3.5-2.7,4.5-3.4c3.5-2.3,4.6-6.4,2.7-9.9c-1.9-3.5-6.2-4.9-10-3.3
					c-4.2,1.8-13.9,4.1-19.2,4.1c-3.5,0-6.3-2.8-6.3-6.3s2.8-6.3,6.3-6.3c13.6,0,23.6-4.3,27.4-11.7c2.8-5.4,1.9-11.9-2.3-17.8
					c-4.9-6.8-7.4-14-7.4-21.3c0-19,15.5-34.5,34.5-34.5c19,0,34.5,15.5,34.5,34.5c0,7.4-2.5,14.5-7.4,21.3
					c-4.3,5.9-5.1,12.4-2.3,17.8c3.8,7.4,13.8,11.7,27.4,11.7c3.5,0,6.3,2.8,6.3,6.3C719.9,104.8,717.1,107.6,713.6,107.6z"/>
			</g>
		</g>
		<g id="XMLID_138_">
			<g id="XMLID_139_">
				<path id="XMLID_140_" class="st0" d="M646.8,43.4c-3.2,0-5.8,2.6-5.8,5.8c0,3.2,2.6,5.8,5.8,5.8c3.2,0,5.8-2.6,5.8-5.8
					C652.6,46,650,43.4,646.8,43.4z"/>
			</g>
		</g>
		<g id="XMLID_135_">
			<g id="XMLID_136_">
				<path id="XMLID_137_" class="st0" d="M676,43.4c-3.2,0-5.8,2.6-5.8,5.9s2.6,5.9,5.8,5.9c3.2,0,5.8-2.6,5.8-5.9
					S679.2,43.4,676,43.4z"/>
			</g>
		</g>
	</g>
	<g id="XMLID_126_">
		<path id="XMLID_127_" class="st0" d="M354.5,2c-28.3,0-53.9,16.9-65,42.9l-0.9,0.3l0.3,1c-14.7,36.2,2.8,77.4,38.9,92
			c8.4,3.4,17.5,5.2,26.6,5.2c39,0,70.7-31.6,70.7-70.7C425.2,33.7,393.5,2,354.5,2z M410,108.3l-3.6-3.6v-8.5
			c0-0.4-0.1-0.7-0.2-1.1l-9.2-18.4V68c0-0.8-0.4-1.5-1-2l-7.1-4.7c-0.6-0.4-1.2-0.5-1.9-0.3l-8.7,2.2l-14.5-6.2l-2-14l5.5-5.5h11.9
			l4,6c0.4,0.5,0.9,0.9,1.6,1l14.1,2.4c0.4,0.1,0.8,0,1.1-0.1l13-4.3C423.9,63.3,422.8,88.5,410,108.3z M400.2,25.2l-3.8,2.6
			l-10.7-2.1l-6.9-2.3c-0.4-0.1-0.9-0.2-1.3-0.1l-8.8,2.2l-3.8-1.3l2.8-5.7h8c0.4,0,0.7-0.1,1.1-0.2l8.2-4.1
			C390.5,17.1,395.7,20.8,400.2,25.2z M328.7,12l5.7,3.8c0.3,0.2,0.6,0.3,0.9,0.4l11.4,1.9l-1.1,3.3l-6,2c-0.5,0.2-1,0.5-1.3,1
			l-6.8,11.3l-10.9,6.5l-16,2.3c-1.2,0.2-2,1.2-2,2.3v7.1c0,0.6,0.2,1.2,0.7,1.7l4,4v4l-9.8-6.5L294,46.4
			C300.8,30.9,313.2,18.6,328.7,12z M322,89.2l-10.7-2.1l-4-7.9v-5.5l8.8-8.8l3.2,6.5c0.4,0.8,1.2,1.3,2.1,1.3h15.2l6.4,10.6
			c0.4,0.7,1.2,1.1,2,1.1h6.6l-1.6,8.3l-8.9,8.9c-0.4,0.4-0.7,1-0.7,1.7v5.9l-8.5,6.4c-0.6,0.4-0.9,1.1-0.9,1.9v8.5l-2.9-1
			l-4.1-10.3V91.6C323.8,90.4,323.1,89.5,322,89.2z M314.9,125.5c-22.2-16.7-31.6-45.5-23.5-72l2,5.9c0.2,0.5,0.5,0.9,0.9,1.2
			l11.7,7.8l-2.7,2.7c-0.4,0.4-0.7,1-0.7,1.7v7.1c0,0.4,0.1,0.7,0.2,1.1l4.7,9.4c0.3,0.7,0.9,1.1,1.6,1.3l9.9,2v21.6
			c0,0.3,0.1,0.6,0.2,0.9l4.7,11.8c0.3,0.6,0.8,1.1,1.4,1.4l7.1,2.4c0.2,0.1,0.5,0.1,0.7,0.1c1.3,0,2.4-1.1,2.4-2.4v-10.6l8.5-6.4
			c0.6-0.4,0.9-1.1,0.9-1.9v-6.1l8.7-8.7c0.3-0.3,0.6-0.7,0.6-1.2l2.4-11.8c0.3-1.3-0.6-2.5-1.8-2.8c-0.2,0-0.3,0-0.5,0h-8.1
			L340,69.1c-0.4-0.7-1.2-1.1-2-1.1h-15l-4-8.1c-0.3-0.7-1-1.2-1.7-1.3c-0.7-0.1-1.5,0.1-2,0.7l-3.1,3v-3.7c0-0.6-0.2-1.2-0.7-1.7
			l-4-4v-4.1l14.5-2.1c0.3,0,0.6-0.2,0.9-0.3l11.8-7.1c0.3-0.2,0.6-0.5,0.8-0.8l6.6-11l6.2-2.1c0.7-0.2,1.3-0.8,1.5-1.5l2.4-7.1
			c0.4-1.2-0.3-2.6-1.5-3c-0.1,0-0.2-0.1-0.3-0.1l-13.6-2.3l-2.4-1.6c14.8-4.8,30.9-4.2,45.3,1.7l-4.3,2.1h-8.9
			c-0.9,0-1.7,0.5-2.1,1.3l-4.7,9.4c-0.6,1.2-0.1,2.6,1.1,3.2c0.1,0,0.2,0.1,0.3,0.1l7.1,2.4c0.4,0.1,0.9,0.2,1.3,0.1l8.8-2.2
			l6.4,2.1c0.1,0,0.2,0.1,0.3,0.1l11.8,2.4c0.6,0.1,1.3,0,1.8-0.3l5.4-3.6c2.6,2.9,5,6.1,7.1,9.5L399.1,42l-12.6-2.1l-4.1-6.2
			c-0.4-0.7-1.2-1-1.9-1h-14.1c-0.6,0-1.2,0.2-1.7,0.7l-7.1,7.1c-0.5,0.5-0.8,1.3-0.7,2l2.4,16.5c0.1,0.8,0.7,1.5,1.4,1.8l16.5,7.1
			c0.5,0.2,1,0.2,1.5,0.1l8.4-2.1l5.1,3.4v8.2c0,0.4,0.1,0.7,0.2,1.1l9.2,18.4v8.9c0,0.6,0.2,1.2,0.7,1.7l4.9,4.9
			C385.4,141.4,344,147.3,314.9,125.5z"/>
	</g>
	<rect id="XMLID_159_" x="554.7" y="66.7" class="st0" width="11.8" height="11.8"/>
	<rect id="XMLID_158_" x="573.8" y="66.7" class="st0" width="11.8" height="11.8"/>
	<rect id="XMLID_157_" x="535.7" y="66.7" class="st0" width="11.8" height="11.8"/>
</g>
</svg>
