<?xml version="1.0" encoding="UTF-8" standalone="no"?>
<!-- Created with Inkscape (http://www.inkscape.org/) -->

<svg
   xmlns:osb="http://www.openswatchbook.org/uri/2009/osb"
   xmlns:dc="http://purl.org/dc/elements/1.1/"
   xmlns:cc="http://creativecommons.org/ns#"
   xmlns:rdf="http://www.w3.org/1999/02/22-rdf-syntax-ns#"
   xmlns:svg="http://www.w3.org/2000/svg"
   xmlns="http://www.w3.org/2000/svg"
   xmlns:xlink="http://www.w3.org/1999/xlink"
   xmlns:sodipodi="http://sodipodi.sourceforge.net/DTD/sodipodi-0.dtd"
   xmlns:inkscape="http://www.inkscape.org/namespaces/inkscape"
   width="334.96875"
   height="340.00693"
   id="svg2"
   version="1.1"
   inkscape:version="0.48.3.1 r9886"
   sodipodi:docname="Documento nuevo 1">
  <defs
     id="defs4">
    <linearGradient
       id="linearGradient5613">
      <stop
         id="stop5615"
         offset="0"
         style="stop-color:#13b4f0;stop-opacity:1;" />
      <stop
         style="stop-color:#ffffff;stop-opacity:1;"
         offset="1"
         id="stop5617" />
    </linearGradient>
    <linearGradient
       id="linearGradient5593">
      <stop
         style="stop-color:#13b4f0;stop-opacity:1;"
         offset="0"
         id="stop5607" />
      <stop
         id="stop5611"
         offset="0.25"
         style="stop-color:#66d2f0;stop-opacity:0.74901961;" />
      <stop
         id="stop5609"
         offset="0.51952064"
         style="stop-color:#baf1f1;stop-opacity:0.49803922;" />
      <stop
         style="stop-color:#76e4e4;stop-opacity:0;"
         offset="1"
         id="stop5597" />
    </linearGradient>
    <linearGradient
       id="linearGradient5405"
       osb:paint="solid">
      <stop
         style="stop-color:#000000;stop-opacity:1;"
         offset="0"
         id="stop5407" />
    </linearGradient>
    <linearGradient
       id="linearGradient3824"
       osb:paint="solid">
      <stop
         style="stop-color:#000000;stop-opacity:1;"
         offset="0"
         id="stop3826" />
    </linearGradient>
    <linearGradient
       inkscape:collect="always"
       xlink:href="#linearGradient5613"
       id="linearGradient5599"
       x1="146.79829"
       y1="625.6936"
       x2="273.61603"
       y2="802.12219"
       gradientUnits="userSpaceOnUse" />
    <linearGradient
       inkscape:collect="always"
       xlink:href="#linearGradient5613"
       id="linearGradient5638"
       gradientUnits="userSpaceOnUse"
       x1="146.79829"
       y1="625.6936"
       x2="273.61603"
       y2="802.12219" />
  </defs>
  <sodipodi:namedview
     id="base"
     pagecolor="#ffffff"
     bordercolor="#666666"
     borderopacity="1.0"
     inkscape:pageopacity="0.0"
     inkscape:pageshadow="2"
     inkscape:zoom="0.7"
     inkscape:cx="-299.54547"
     inkscape:cy="19.055819"
     inkscape:document-units="px"
     inkscape:current-layer="layer7"
     showgrid="false"
     inkscape:window-width="1920"
     inkscape:window-height="1058"
     inkscape:window-x="-8"
     inkscape:window-y="-8"
     inkscape:window-maximized="1"
     fit-margin-top="0"
     fit-margin-left="0"
     fit-margin-right="0"
     fit-margin-bottom="0" />
  <metadata
     id="metadata7">
    <rdf:RDF>
      <cc:Work
         rdf:about="">
        <dc:format>image/svg+xml</dc:format>
        <dc:type
           rdf:resource="http://purl.org/dc/dcmitype/StillImage" />
        <dc:title></dc:title>
      </cc:Work>
    </rdf:RDF>
  </metadata>
  <g
     inkscape:groupmode="layer"
     id="layer2"
     inkscape:label="BASE"
     style="display:inline"
     transform="translate(-204.56287,-356.17763)" />
  <g
     inkscape:label="circulo_interior"
     inkscape:groupmode="layer"
     id="layer1"
     style="display:inline"
     transform="translate(-204.56287,-356.17763)" />
  <g
     inkscape:groupmode="layer"
     id="layer5"
     inkscape:label="circulo_exterior"
     style="display:inline"
     transform="translate(-204.56287,-356.17763)" />
  <g
     inkscape:groupmode="layer"
     id="layer4"
     inkscape:label="GALICIA"
     style="display:inline"
     transform="translate(-204.56287,-356.17763)" />
  <g
     inkscape:groupmode="layer"
     id="layer6"
     inkscape:label="rosa_vientos_grande"
     style="display:inline"
     transform="translate(-204.56287,-356.17763)" />
  <g
     inkscape:groupmode="layer"
     id="layer7"
     inkscape:label="rosa_vientos_pequeña"
     style="display:inline"
     transform="translate(-204.56287,-356.17763)">
    <g
       id="g5629"
       transform="translate(167.55472,-180.79277)">
      <path
         transform="matrix(1.1538297,0,0,1.1444156,-308.13554,-202.98011)"
         d="m 549.52299,803.86469 c 0,58.57864 -47.03511,106.06601 -105.05586,106.06601 -58.02075,0 -105.05586,-47.48737 -105.05586,-106.06601 0,-58.57865 47.03511,-106.06602 105.05586,-106.06602 58.02075,0 105.05586,47.48737 105.05586,106.06602 z"
         sodipodi:ry="106.06602"
         sodipodi:rx="105.05586"
         sodipodi:cy="803.86469"
         sodipodi:cx="444.46713"
         id="path5544"
         style="fill:#002c3f;fill-opacity:1;fill-rule:evenodd;stroke:none;display:inline"
         sodipodi:type="arc" />
      <path
         inkscape:connector-curvature="0"
         id="path5403-8"
         d="m 204.78566,556.75857 c -88.69914,0 -160.625004,71.69827 -160.625004,160.125 0,88.42673 71.925864,160.09375 160.625004,160.09375 88.69914,0 160.59375,-71.66702 160.59375,-160.09375 0,-88.42673 -71.89461,-160.125 -160.59375,-160.125 z m -0.0312,6.96875 c 84.85801,0 153.65625,68.57431 153.65625,153.15625 0,84.58194 -68.79824,153.125 -153.65625,153.125 -84.85801,0 -153.625004,-68.54306 -153.625004,-153.125 0,-84.58194 68.766994,-153.15625 153.625004,-153.15625 z"
         style="fill:#00c3ff;fill-opacity:1;stroke:none;display:inline" />
      <path
         sodipodi:nodetypes="cssssssssssssscccsssssssssscccscccssssssssssscccssscccsscssssssssssscccssscccssssssccc"
         inkscape:connector-curvature="0"
         id="path5544-7"
         d="m 152.87941,667.82102 c 0.0578,0.47253 -1.55656,1.43966 -3.5625,2.15625 -3.49053,1.24695 -3.7674,1.16199 -6.4375,-1.625 -1.53446,-1.60163 -3.19032,-2.90625 -3.6875,-2.90625 -0.49718,0 -3.56258,1.87656 -6.8125,4.15625 -6.01145,4.21679 -7.51318,6.84375 -3.90625,6.84375 1.1,0 2,0.24849 2,0.53125 0,1.57285 -7.1229,6.65997 -10.9375,7.8125 -3.9256,1.18607 -4.62988,1.82713 -5.875,5.5625 -0.88142,2.64424 -2.28547,4.66223 -3.78125,5.34375 -2.84178,1.2948 -3.13939,4.43779 -0.8125,8.9375 1.24729,2.412 1.35687,3.61938 0.5,5.5 -1.62877,3.57477 -1.32976,6.11802 0.84375,7.28125 2.65193,1.41927 2.75679,1.36794 3.46875,-1.46875 1.14899,-4.57793 4.24753,-2.91238 7.03125,3.75 l 1.5,3.5625 c 1.45851,2.72589 21.94448,36.37373 23.625,40.25 0.95407,0.7918 3.03044,0.99221 5.9375,0.59375 2.46733,-0.33818 4.5,-0.21324 4.5,0.28125 0,0.4945 0.30952,1.74252 0.6875,2.75 0.59662,1.59028 0.4795,1.65183 -0.9375,0.5 -2.01709,-1.63965 -5.7723,-1.20066 -6.84375,0.8125 -0.43909,0.825 -1.05686,3.15436 -1.375,5.15625 -0.39575,2.49027 -1.21101,3.80283 -2.5625,4.15625 -2.52557,0.66045 -2.53859,3.31437 -0.0312,4.65625 1.57045,0.84048 2.04666,0.6565 2.5625,-0.96875 1.26378,-3.98183 7.5,-5.17894 7.5,-1.4375 0,0.89895 -2.08729,3.95871 -4.625,6.78125 l -4.59375,5.125 0.625,6.25 c 0.81876,7.99155 4.29822,19.28125 5.9375,19.28125 1.91838,0 6.9448,-5.67571 12.0625,-13.65625 l 4.59375,-7.15625 9.75,-2.21875 c 9.70967,-2.19595 15.25,-4.32014 15.25,-5.8125 0,-0.43076 0.62549,-1.59999 1.375,-2.625 1.29027,-1.76454 1.42639,-1.70459 2.75,1.0625 1.04862,2.1922 2.25768,3.0312 4.875,3.40625 5.26193,0.75401 5.31242,4.11965 0.0937,8.9375 -3.90587,3.60588 -4.82406,6.04955 -3.5,9.5 0.33384,0.86999 1.26773,1.5625 2.0625,1.5625 0.79477,0 1.92365,1.34668 2.5,3 1.2171,3.49139 4.54137,4.75273 8,3 1.28873,-0.65309 4.30976,-3.28758 6.71875,-5.84375 4.2226,-4.4806 4.41106,-4.5754 5.21875,-2.40625 1.06646,2.86407 2.24831,2.84064 7.46875,-0.21875 l 4.21875,-2.5 c 6.57374,-0.32219 32.34958,1.63758 33.34375,1.625 0.19948,-0.13069 2.2875,-1.47133 4.625,-2.96875 3.98821,-2.55489 4.25,-3.00127 4.25,-7.3125 0,-4.25775 0.16479,-4.53183 2.25,-4.03125 1.2375,0.29707 3.84714,0.83196 5.8125,1.1875 l 3.59375,0.625 1.25,-5.625 c 1.23749,-5.52969 1.20094,-5.67521 -1.375,-8.0625 -2.13255,-1.97639 -2.407,-2.79705 -1.5625,-4.375 0.57174,-1.06832 1.94878,-2.24026 3.0625,-2.59375 1.34311,-0.42628 2.42341,-2.15128 3.21875,-5.125 1.26384,-4.72535 0.92489,-4.60079 7,-2.6875 2.377,0.74861 4.75,-5.01699 4.75,-11.5625 0,-5.26033 -1.7148,-8.125 -4.90625,-8.125 -2.41471,0 -4.73239,-2.79022 -5.8125,-7 -1.34819,-5.25458 -8.17804,-7.73775 -13.46875,-4.90625 -3.20523,1.71539 -4.55475,-0.31438 -2.90625,-4.34375 0.72816,-1.77981 1.69859,-5.725 2.15625,-8.75 0.5421,-3.58308 1.44117,-5.84853 2.59375,-6.5 0.97305,-0.55 3.0287,-2.18605 4.5625,-3.65625 2.58256,-2.47546 2.78125,-3.2489 2.78125,-10.4375 0,-6.44753 -0.36094,-8.12628 -2.0625,-9.9375 l -2.03125,-2.1875 c -2.12219,-3.15097 -23.5,-37.59375 -23.5,-37.59375 -0.76225,0.2925 -1.67788,-0.23539 -2.03125,-1.15625 -0.42988,-1.12024 0.51625,-2.8819 2.875,-5.34375 3.98229,-4.15634 5.20523,-7.19307 4.3125,-10.75 -0.59501,-2.3707 -0.8491,-2.44154 -9,-2.1875 l -8.375,0.25 -7.4375,-7.1875 c -8.513,-8.24552 -11.16601,-9.31337 -16.78125,-6.78125 -3.19026,1.43861 -4.19649,1.52995 -5.4375,0.5 -0.83764,-0.69518 -1.53125,-1.86855 -1.53125,-2.59375 0,-2.45224 -2.01243,-2.58838 -5.59375,-0.375 -3.20586,1.98133 -3.96722,2.08653 -7.59375,1 -3.72018,-1.1146 -4.25872,-1.01388 -6.6875,1.15625 -1.44824,1.29401 -4.50097,3.78513 -6.8125,5.5625 l -4.21875,3.25 c -1.53166,1.39338 -35.62907,41.29231 -36.6875,41.34375 z"
         style="fill:url(#linearGradient5638);fill-opacity:1;fill-rule:evenodd;stroke:none;display:inline" />
      <g
         transform="translate(-136.37059,7.0710678)"
         id="g5552"
         style="display:inline">
        <path
           style="fill:#ffffff;fill-opacity:1;stroke:none"
           d="M 257.23215,535.79968 355.32116,657.14 503.30736,617.48722 381.33259,713.20347 418.20316,851.53123 327.7945,740.47758 179.80715,781.89384 297.93504,686.37578 z"
           id="path5550"
           inkscape:connector-curvature="0"
           sodipodi:nodetypes="ccccccccc" />
        <path
           style="fill:#00c3ff;fill-opacity:1;stroke:none"
           d="m 254.40999,529.89933 41.9375,155.84375 -122.96875,99.53125 154,-43.3125 93.65625,115.0625 -38,-143.15625 125.3125,-98.90625 -152.53125,40.59375 -101.40625,-125.65625 z m 6.125,12.625 94.09375,116.34375 141.59375,-37.59375 -116.3125,91.59375 35.25,132.53125 -86.9375,-106.53125 -142.90625,40.09375 114.125,-92.15625 -38.90625,-144.28125 z"
           id="path5401"
           inkscape:connector-curvature="0" />
      </g>
      <path
         sodipodi:nodetypes="csssscsssssssssssscscccssscssscsscc"
         inkscape:connector-curvature="0"
         id="path5585"
         d="m 215.47314,733.95211 c -4.55408,-6.875 -8.60766,-12.5 -9.00794,-12.5 -0.40029,0 -3.55806,4.2922 -7.01726,9.53822 -3.45921,5.24602 -6.55617,9.7042 -6.88213,9.90705 -0.32597,0.20286 -0.45389,-5.253 -0.28426,-12.12414 l 0.3084,-12.49298 -2.3084,0.72968 c -1.26963,0.40133 -8.10181,2.8809 -15.18264,5.51016 -7.08083,2.62926 -12.48083,4.42288 -12,3.98582 0.48083,-0.43705 6.38673,-4.46184 13.12423,-8.94397 6.7375,-4.48213 12.25,-8.35384 12.25,-8.60379 0,-0.24996 -4.1625,-3.22608 -9.25,-6.61362 -5.0875,-3.38754 -9.7,-6.60462 -10.25,-7.14906 -0.66005,-0.65338 3.3344,-0.76157 11.75,-0.31825 7.0125,0.36941 12.75,0.47641 12.75,0.23777 0,-0.23863 -2.87207,-7.9104 -6.38239,-17.04838 -3.51031,-9.13798 -6.25163,-16.61451 -6.09181,-16.61451 0.15982,0 4.67045,6.76144 10.02363,15.02543 5.35317,8.26398 9.83826,14.90148 9.96686,14.75 0.1286,-0.15149 3.46217,-4.99389 7.40794,-10.76089 l 7.17413,-10.48546 -0.69661,13.19541 -0.69662,13.1954 5.39743,-2.05968 c 12.52749,-4.78054 23.89744,-8.74312 23.89744,-8.32857 0,0.2449 -5.67107,4.23288 -12.60237,8.86219 l -12.60237,8.41691 9.35237,6.228 c 5.1438,3.42539 9.80237,6.65467 10.35237,7.17617 0.63271,0.59992 -3.4075,0.87922 -11,0.76043 -6.6,-0.10327 -12.29427,-0.13996 -12.65393,-0.0815 -0.35966,0.0584 0.24773,2.46871 1.34974,5.35621 4.16564,10.9148 8.70583,23.75 8.40108,23.75 -0.1742,0 -4.04281,-5.625 -8.59689,-12.5 z"
         style="fill:#002c3f;fill-opacity:1;display:inline" />
    </g>
  </g>
</svg>
