<?xml version="1.0" encoding="UTF-8" standalone="no"?>
<!-- Created with Inkscape (http://www.inkscape.org/) -->

<svg
   width="79.129807mm"
   height="43.4851mm"
   viewBox="0 0 79.129806 43.4851"
   version="1.1"
   id="svg1012"
   inkscape:version="1.1.2 (0a00cf5339, 2022-02-04)"
   sodipodi:docname="Q-ESP_texto_.svg"
   inkscape:export-filename="/home/miguel/nextcloud/cloud.montera34.org/Design/00_own_designs/qgis_es/Q-ESP.png"
   inkscape:export-xdpi="142.52238"
   inkscape:export-ydpi="142.52238"
   xmlns:inkscape="http://www.inkscape.org/namespaces/inkscape"
   xmlns:sodipodi="http://sodipodi.sourceforge.net/DTD/sodipodi-0.dtd"
   xmlns="http://www.w3.org/2000/svg"
   xmlns:svg="http://www.w3.org/2000/svg"
   xmlns:rdf="http://www.w3.org/1999/02/22-rdf-syntax-ns#"
   xmlns:cc="http://creativecommons.org/ns#"
   xmlns:dc="http://purl.org/dc/elements/1.1/">
  <defs
     id="defs1006">
    <linearGradient
       gradientTransform="matrix(0.26458333,0,0,0.26458333,24.21187,78.533849)"
       id="SVGID_5_-3"
       gradientUnits="userSpaceOnUse"
       x1="188.7529"
       y1="250.2354"
       x2="186.5125"
       y2="102.9362">
      <stop
         offset="0"
         style="stop-color:#589632"
         id="stop36-6" />
      <stop
         offset="1"
         style="stop-color:#93B023"
         id="stop38-7" />
    </linearGradient>
    <linearGradient
       id="SVGID_4_"
       gradientUnits="userSpaceOnUse"
       x1="234.4702"
       y1="250.03419"
       x2="232.211"
       y2="101.4977">
      <stop
         offset="0"
         style="stop-color:#589632"
         id="stop27" />
      <stop
         offset="1"
         style="stop-color:#93B023"
         id="stop29" />
    </linearGradient>
  </defs>
  <sodipodi:namedview
     id="base"
     pagecolor="#ffffff"
     bordercolor="#666666"
     borderopacity="1.0"
     inkscape:pageopacity="0.0"
     inkscape:pageshadow="2"
     inkscape:zoom="2.7618496"
     inkscape:cx="142.29595"
     inkscape:cy="78.932611"
     inkscape:document-units="mm"
     inkscape:current-layer="layer1"
     showgrid="false"
     fit-margin-top="2"
     fit-margin-left="2"
     fit-margin-bottom="2"
     fit-margin-right="2"
     inkscape:window-width="1920"
     inkscape:window-height="1124"
     inkscape:window-x="0"
     inkscape:window-y="0"
     inkscape:window-maximized="1"
     inkscape:pagecheckerboard="0" />
  <metadata
     id="metadata1009">
    <rdf:RDF>
      <cc:Work
         rdf:about="">
        <dc:format>image/svg+xml</dc:format>
        <dc:type
           rdf:resource="http://purl.org/dc/dcmitype/StillImage" />
      </cc:Work>
    </rdf:RDF>
  </metadata>
  <g
     inkscape:label="Layer 1"
     inkscape:groupmode="layer"
     id="layer1"
     transform="translate(-51.56157,-102.66542)">
    <polygon
       transform="matrix(0.26458333,0,0,0.26458333,24.21187,78.533849)"
       style="display:inline;fill:#ee7913"
       points="216.513,180 198.306,162 176,162 176,183.433 195,202.37 195,180 "
       id="polygon3" />
    <polygon
       transform="matrix(0.26458333,0,0,0.26458333,24.21187,78.533849)"
       style="display:inline;fill:url(#SVGID_4_)"
       points="225.617,189 204,189 204,211.34 240.782,248 264,248 264,226.946 "
       id="polygon31" />
    <polygon
       transform="matrix(0.26458333,0,0,0.26458333,24.21187,78.533849)"
       style="display:inline;fill:#f0e64a"
       points="225.617,189 216.513,180 195,180 195,202.37 204,211.34 204,189 "
       id="polygon33" />
    <path
       inkscape:connector-curvature="0"
       style="display:inline;fill:url(#SVGID_5_-3);stroke-width:0.264583"
       d="m 76.613128,135.91245 c -0.862277,0.19844 -1.75895,0.30613 -2.683933,0.30613 -6.615906,0 -12.242536,-5.44037 -12.242536,-12.49416 0,-7.05379 5.564717,-12.3743 12.242536,-12.3743 6.677819,0 11.99515,5.32024 11.99515,12.3743 0,1.14723 -0.142875,2.25107 -0.407194,3.29671 l 6.123517,6.12246 c 1.578769,-2.76622 2.461948,-5.9825 2.461948,-9.46627 0,-10.87173 -8.675952,-19.0119 -20.297246,-19.0119 -11.568113,0 -20.2438,8.08673 -20.2438,19.0119 0,10.97863 8.675952,19.22621 20.2438,19.22621 2.986352,0 5.777177,-0.54927 8.277225,-1.54887 z"
       id="path40" />
    <path
       d="m 70.778537,121.39635 23.283333,22.75417 v -5.57072 l -10.155452,-10.0397 -2.408639,-2.38125 -4.817277,-4.7625 z"
       id="polygon4174"
       style="display:inline;fill:#ffffff;fill-opacity:0.172549;stroke-width:0.264583"
       inkscape:connector-curvature="0"
       sodipodi:nodetypes="ccccccc" />
    <g
       aria-label="ESP"
       transform="matrix(0.69231376,0.69231376,-0.72221589,0.72221589,0,0)"
       id="text4170"
       style="font-weight:600;font-size:3.175px;line-height:0%;font-family:Trueno;-inkscape-font-specification:'Trueno, Semi-Bold';letter-spacing:0px;word-spacing:0px;display:inline;fill:#ffffff;stroke-width:0.264583px">
      <path
         d="m 154.69533,37.122028 h 3.51003 v -0.845247 h -2.49057 v -1.000102 h 2.18086 v -0.845247 h -2.18086 v -0.980745 h 2.4196 v -0.845248 h -3.43906 z"
         style="font-size:6.45227px;line-height:1.25"
         id="path43011" />
      <path
         d="m 158.63766,36.438088 c 0.50973,0.432302 1.25174,0.716202 1.99375,0.716202 1.0001,0 1.76792,-0.477468 1.76792,-1.361429 0.006,-1.625972 -2.40024,-1.161409 -2.40024,-1.993752 0,-0.245186 0.23228,-0.367779 0.57425,-0.367779 0.36133,0 0.92913,0.180663 1.40659,0.464563 l 0.39359,-0.845247 c -0.45166,-0.296804 -1.08398,-0.490373 -1.7163,-0.490373 -1.04527,0 -1.74857,0.516182 -1.74857,1.33562 0,1.600163 2.4067,1.103339 2.4067,1.955038 0,0.277448 -0.25164,0.432302 -0.67104,0.432302 -0.47746,0 -1.1356,-0.264543 -1.60016,-0.677488 z"
         style="font-size:6.45227px;line-height:1.25"
         id="path43013" />
      <path
         d="m 163.11553,37.122028 h 1.01946 v -1.290454 h 0.89686 c 1.14851,0 1.80664,-0.606513 1.80664,-1.658233 0,-1.000102 -0.65813,-1.567902 -1.80664,-1.567902 h -1.91632 z m 1.01946,-2.142153 v -1.529188 h 0.84524 c 0.5678,0 0.89042,0.251638 0.89042,0.754915 0,0.516182 -0.32262,0.774273 -0.89042,0.774273 z"
         style="font-size:6.45227px;line-height:1.25"
         id="path43015" />
    </g>
    <g
       id="g42904"
       transform="translate(-0.52916667,-0.78413316)"
       style="fill:#5b9731;fill-opacity:1">
      <g
         aria-label="Asociación"
         transform="scale(0.97907952,1.0213675)"
         id="text4170-2-0"
         style="font-weight:200;font-size:6.10737px;line-height:0%;font-family:Trueno;-inkscape-font-specification:'Trueno, Ultra-Light';letter-spacing:0px;word-spacing:0px;display:inline;fill:#5b9731;stroke-width:0.508951px;fill-opacity:1">
        <path
           d="m 99.500428,112.14051 h 0.280939 l 0.549663,-1.21537 h 2.49791 l 0.55577,1.21537 h 0.28094 l -1.95435,-4.26905 h -0.27484 z m 0.940532,-1.47188 1.12987,-2.50402 1.14207,2.50402 z"
           style="line-height:1.25;fill:#5b9731;fill-opacity:1"
           id="path42931" />
        <path
           d="m 103.88552,111.70689 c 0.29315,0.28094 0.72067,0.43973 1.16651,0.43973 0.57409,0 1.10543,-0.26262 1.10543,-0.85503 0,-1.12376 -1.85664,-0.70235 -1.85664,-1.55738 0,-0.37866 0.34812,-0.54967 0.79396,-0.54967 0.30537,0 0.58631,0.0855 0.80617,0.22598 l 0.10993,-0.20765 c -0.2504,-0.15269 -0.55577,-0.25041 -0.90999,-0.25041 -0.56188,0 -1.04436,0.2443 -1.04436,0.80007 0,1.09322 1.88106,0.68402 1.85664,1.58181 -0.0183,0.40308 -0.40309,0.5802 -0.84893,0.5802 -0.40309,0 -0.78785,-0.14658 -1.06268,-0.40309 z"
           style="line-height:1.25;fill:#5b9731;fill-opacity:1"
           id="path42933" />
        <path
           d="m 106.67658,110.54649 c 0,0.94053 0.6657,1.60013 1.56959,1.60013 0.91,0 1.56959,-0.6596 1.56959,-1.60013 0,-0.92832 -0.65959,-1.59403 -1.56959,-1.59403 -0.90389,0 -1.56959,0.66571 -1.56959,1.59403 z m 0.2504,0.006 c 0,-0.80006 0.55577,-1.35583 1.31919,-1.35583 0.76953,0 1.31919,0.55577 1.31919,1.35583 0,0.80007 -0.54966,1.35584 -1.31919,1.35584 -0.76342,0 -1.31919,-0.55577 -1.31919,-1.35584 z"
           style="line-height:1.25;fill:#5b9731;fill-opacity:1"
           id="path42935" />
        <path
           d="m 110.40206,110.55259 c 0,0.93443 0.6596,1.59403 1.55738,1.59403 0.4947,0 0.91611,-0.18933 1.19705,-0.51913 l -0.15269,-0.1649 c -0.24429,0.28705 -0.61073,0.44584 -1.03825,0.44584 -0.76342,0 -1.31308,-0.55577 -1.31308,-1.36194 0,-0.79396 0.54966,-1.34973 1.31308,-1.34973 0.39698,0 0.72678,0.14658 0.98329,0.38476 l 0.14657,-0.18322 c -0.28093,-0.28094 -0.67791,-0.44584 -1.13597,-0.44584 -0.89778,0 -1.55738,0.66571 -1.55738,1.60013 z"
           style="line-height:1.25;fill:#5b9731;fill-opacity:1"
           id="path42937" />
        <path
           d="m 114.07258,108.04247 c 0,0.12825 0.0977,0.22597 0.21376,0.22597 0.11604,0 0.21376,-0.0977 0.21376,-0.22597 0,-0.12215 -0.0977,-0.21987 -0.21376,-0.21987 -0.11604,0 -0.21376,0.0977 -0.21376,0.21987 z m 0.0855,4.09804 h 0.2504 v -3.18194 h -0.2504 z"
           style="line-height:1.25;fill:#5b9731;fill-opacity:1"
           id="path42939" />
        <path
           d="m 115.40398,111.21219 c 0,0.53745 0.42141,0.93443 1.05046,0.93443 0.54967,0 1.00161,-0.19544 1.27034,-0.63517 l 0.006,0.62906 h 0.25041 l -0.0122,-2.11315 c -0.006,-0.6596 -0.4153,-1.0749 -1.16651,-1.0749 -0.48248,0 -0.84892,0.17712 -1.22758,0.45195 l 0.12215,0.19543 c 0.33591,-0.2565 0.67181,-0.4153 1.06879,-0.4153 0.63517,0 0.94664,0.32369 0.95275,0.86114 v 0.31148 h -1.12986 c -0.73289,0 -1.18483,0.32369 -1.18483,0.85503 z m 0.24429,-0.006 c 0,-0.40919 0.34201,-0.62295 0.96497,-0.62295 h 1.11154 v 0.51913 c -0.19544,0.55577 -0.64128,0.81228 -1.23369,0.81228 -0.51913,0 -0.84282,-0.28705 -0.84282,-0.70846 z"
           style="line-height:1.25;fill:#5b9731;fill-opacity:1"
           id="path42941" />
        <path
           d="m 118.80578,110.55259 c 0,0.93443 0.65959,1.59403 1.55738,1.59403 0.49469,0 0.9161,-0.18933 1.19704,-0.51913 l -0.15268,-0.1649 c -0.2443,0.28705 -0.61074,0.44584 -1.03825,0.44584 -0.76343,0 -1.31309,-0.55577 -1.31309,-1.36194 0,-0.79396 0.54966,-1.34973 1.31309,-1.34973 0.39697,0 0.72677,0.14658 0.98328,0.38476 l 0.14658,-0.18322 c -0.28094,-0.28094 -0.67792,-0.44584 -1.13597,-0.44584 -0.89779,0 -1.55738,0.66571 -1.55738,1.60013 z"
           style="line-height:1.25;fill:#5b9731;fill-opacity:1"
           id="path42943" />
        <path
           d="m 122.4763,108.04247 c 0,0.12825 0.0977,0.22597 0.21376,0.22597 0.11604,0 0.21375,-0.0977 0.21375,-0.22597 0,-0.12215 -0.0977,-0.21987 -0.21375,-0.21987 -0.11604,0 -0.21376,0.0977 -0.21376,0.21987 z m 0.0855,4.09804 h 0.2504 v -3.18194 h -0.2504 z"
           style="line-height:1.25;fill:#5b9731;fill-opacity:1"
           id="path42945" />
        <path
           d="m 123.74662,110.54649 c 0,0.94053 0.6657,1.60013 1.56959,1.60013 0.91,0 1.5696,-0.6596 1.5696,-1.60013 0,-0.92832 -0.6596,-1.59403 -1.5696,-1.59403 -0.90389,0 -1.56959,0.66571 -1.56959,1.59403 z m 0.2504,0.006 c 0,-0.80006 0.55577,-1.35583 1.31919,-1.35583 0.76953,0 1.31919,0.55577 1.31919,1.35583 0,0.80007 -0.54966,1.35584 -1.31919,1.35584 -0.76342,0 -1.31919,-0.55577 -1.31919,-1.35584 z m 1.081,-2.19865 h 0.28705 l 0.78174,-0.62906 -0.2504,-0.12215 z"
           style="line-height:1.25;fill:#5b9731;fill-opacity:1"
           id="path42947" />
        <path
           d="m 127.81412,112.14051 h 0.25651 v -1.72228 c 0.055,-0.73288 0.50691,-1.19093 1.23979,-1.20926 0.65349,0 1.03826,0.38477 1.03826,1.03826 v 1.89328 h 0.25651 v -1.94214 c 0,-0.77564 -0.45806,-1.24591 -1.23369,-1.24591 -0.63517,0.0122 -1.08711,0.29316 -1.30087,0.81839 v -0.81228 h -0.25651 z"
           style="line-height:1.25;fill:#5b9731;fill-opacity:1"
           id="path42949" />
      </g>
      <g
         aria-label="España"
         transform="scale(0.97907952,1.0213675)"
         id="text4170-2-0-8"
         style="font-weight:200;font-size:9.34078px;line-height:0%;font-family:Trueno;-inkscape-font-specification:'Trueno, Ultra-Light';letter-spacing:0px;word-spacing:0px;display:inline;fill:#5b9731;stroke-width:0.778401px;fill-opacity:1">
        <path
           d="m 100.33643,134.5103 h 4.33412 v -0.38297 h -3.94181 v -2.76487 h 3.40005 v -0.39232 h -3.40005 v -2.60607 h 3.82038 v -0.38298 h -4.21269 z"
           style="line-height:1.25;fill:#5b9731;fill-opacity:1"
           id="path42952" />
        <path
           d="m 105.52056,133.8471 c 0.44836,0.42968 1.10221,0.67254 1.78409,0.67254 0.87803,0 1.69068,-0.40165 1.69068,-1.30771 0,-1.7187 -2.8396,-1.07419 -2.8396,-2.3819 0,-0.57913 0.53243,-0.84067 1.2143,-0.84067 0.46704,0 0.89672,0.13077 1.23299,0.34561 l 0.16813,-0.31759 c -0.38297,-0.23352 -0.85001,-0.38297 -1.39178,-0.38297 -0.85935,0 -1.59727,0.37363 -1.59727,1.22364 0,1.672 2.87696,1.04617 2.8396,2.41927 -0.028,0.61649 -0.61649,0.88737 -1.29837,0.88737 -0.61649,0 -1.20496,-0.22418 -1.6253,-0.61649 z"
           style="line-height:1.25;fill:#5b9731;fill-opacity:1"
           id="path42954" />
        <path
           d="m 110.35907,136.32241 h 0.39231 v -3.08246 c 0.36429,0.78463 1.11155,1.27969 2.06431,1.27969 1.3731,0 2.34454,-1.01814 2.34454,-2.43794 0,-1.42914 -0.98078,-2.44729 -2.34454,-2.44729 -0.95276,0 -1.70002,0.49506 -2.06431,1.28903 v -1.27969 h -0.39231 z m 0.39231,-4.24071 c 0,-1.20496 0.84067,-2.083 2.00827,-2.083 1.17694,0 2.01761,0.87804 2.01761,2.083 0,1.20496 -0.84067,2.07365 -2.01761,2.07365 -1.1676,0 -2.00827,-0.86869 -2.00827,-2.07365 z"
           style="line-height:1.25;fill:#5b9731;fill-opacity:1"
           id="path42956" />
        <path
           d="m 116.15035,133.0905 c 0,0.82199 0.64451,1.42914 1.60661,1.42914 0.84067,0 1.53189,-0.2989 1.94288,-0.97144 l 0.009,0.9621 h 0.38298 l -0.0187,-3.23191 c -0.009,-1.0088 -0.63517,-1.64398 -1.78408,-1.64398 -0.73793,0 -1.29837,0.27089 -1.8775,0.69122 l 0.18681,0.29891 c 0.51375,-0.39232 1.02749,-0.63518 1.63464,-0.63518 0.97144,0 1.44782,0.49506 1.45716,1.31705 v 0.47638 h -1.72804 c -1.1209,0 -1.81211,0.49506 -1.81211,1.30771 z m 0.37363,-0.009 c 0,-0.62583 0.52308,-0.95276 1.47584,-0.95276 h 1.70002 v 0.79397 c -0.2989,0.85001 -0.98078,1.24232 -1.88683,1.24232 -0.79397,0 -1.28903,-0.43902 -1.28903,-1.08353 z"
           style="line-height:1.25;fill:#5b9731;fill-opacity:1"
           id="path42958" />
        <path
           d="m 121.87624,134.5103 h 0.39231 v -2.6341 c 0.0841,-1.12089 0.77529,-1.82145 1.89618,-1.84947 0.99946,0 1.58793,0.58846 1.58793,1.58793 v 2.89564 h 0.39232 v -2.97037 c 0,-1.18628 -0.70056,-1.90552 -1.88684,-1.90552 -0.97144,0.0187 -1.66266,0.44836 -1.98959,1.25167 v -1.24233 h -0.39231 z m 0.86869,-5.95008 h 0.29891 c 0,-0.33627 0.14945,-0.53242 0.43901,-0.53242 0.39232,0 0.6165,0.61649 1.15826,0.61649 0.43902,0 0.69122,-0.30825 0.69122,-0.85935 h -0.29891 c 0,0.33627 -0.14945,0.53242 -0.43901,0.53242 -0.38298,0 -0.68188,-0.61649 -1.15826,-0.61649 -0.43902,0 -0.69122,0.30825 -0.69122,0.85935 z"
           style="line-height:1.25;fill:#5b9731;fill-opacity:1"
           id="path42960" />
        <path
           d="m 127.49938,133.0905 c 0,0.82199 0.64451,1.42914 1.60661,1.42914 0.84067,0 1.53189,-0.2989 1.94288,-0.97144 l 0.009,0.9621 h 0.38297 l -0.0187,-3.23191 c -0.009,-1.0088 -0.63518,-1.64398 -1.78409,-1.64398 -0.73792,0 -1.29837,0.27089 -1.8775,0.69122 l 0.18682,0.29891 c 0.51374,-0.39232 1.02748,-0.63518 1.63463,-0.63518 0.97144,0 1.44782,0.49506 1.45716,1.31705 v 0.47638 h -1.72804 c -1.12089,0 -1.81211,0.49506 -1.81211,1.30771 z m 0.37363,-0.009 c 0,-0.62583 0.52308,-0.95276 1.47584,-0.95276 h 1.70002 v 0.79397 c -0.2989,0.85001 -0.98078,1.24232 -1.88683,1.24232 -0.79397,0 -1.28903,-0.43902 -1.28903,-1.08353 z"
           style="line-height:1.25;fill:#5b9731;fill-opacity:1"
           id="path42962" />
      </g>
      <g
         aria-label="QGIS"
         transform="scale(0.97907952,1.0213675)"
         id="text4170-2-0-7"
         style="font-weight:200;font-size:13.2136px;line-height:0%;font-family:Trueno;-inkscape-font-specification:'Trueno, Ultra-Light';letter-spacing:0px;word-spacing:0px;display:inline;fill:#5b9731;stroke-width:1.10113px;fill-opacity:1">
        <path
           d="m 100.14916,119.5047 c 0,2.56344 2.1406,4.63798 4.78332,4.63798 h 0.22464 c 0.96459,1.13637 1.92918,1.71776 2.88056,1.71776 0.73996,0 1.49314,-0.33034 2.20667,-1.00423 l -0.27748,-0.40962 c -0.64747,0.5814 -1.28172,0.89852 -1.88955,0.89852 -0.71353,0 -1.45349,-0.43604 -2.28595,-1.28171 2.2331,-0.3832 3.92444,-2.27274 3.92444,-4.5587 0,-2.56344 -2.14061,-4.62476 -4.78333,-4.62476 -2.64272,0 -4.78332,2.06132 -4.78332,4.62476 z m 0.56819,0 c 0,-2.25952 1.90275,-4.083 4.21513,-4.083 2.31238,0 4.21514,1.82348 4.21514,4.083 0,2.25953 -1.90276,4.09622 -4.21514,4.09622 -2.31238,0 -4.21513,-1.83669 -4.21513,-4.09622 z"
           style="line-height:1.25;fill:#5b9731;fill-opacity:1"
           id="path42965" />
        <path
           d="m 111.11642,119.5047 c 0,2.56344 2.14061,4.63798 4.77011,4.63798 1.22887,0 2.41809,-0.46248 3.27698,-1.20244 v -3.34304 h -0.50212 v 3.06555 c -0.75318,0.59462 -1.73098,0.95138 -2.74843,0.95138 -2.33881,0 -4.24156,-1.83669 -4.24156,-4.10943 0,-2.25952 1.90275,-4.09621 4.24156,-4.09621 1.10994,0 2.15382,0.40962 2.92021,1.09673 l 0.33034,-0.40963 c -0.85889,-0.75317 -2.00847,-1.21565 -3.25055,-1.21565 -2.64272,0 -4.79654,2.06132 -4.79654,4.62476 z"
           style="line-height:1.25;fill:#5b9731;fill-opacity:1"
           id="path42967" />
        <path
           d="m 122.11013,124.12946 h 0.55497 v -9.2363 h -0.55497 z"
           style="line-height:1.25;fill:#5b9731;fill-opacity:1"
           id="path42969" />
        <path
           d="m 124.75285,122.8081 c 0.80603,0.79282 2.06132,1.33458 3.29018,1.33458 1.92919,0 3.21091,-0.92496 3.21091,-2.35202 0.0264,-3.40911 -5.40436,-1.95562 -5.40436,-4.77011 0,-0.9646 0.95138,-1.57242 2.41808,-1.57242 0.79282,0 1.73099,0.22463 2.41809,0.67389 l 0.25106,-0.50212 c -0.68711,-0.44926 -1.70455,-0.75317 -2.64272,-0.75317 -1.82347,0 -3.03913,0.85888 -3.03913,2.19346 0,3.32982 5.43079,1.8499 5.40437,4.74368 0,1.08351 -1.01745,1.77062 -2.60308,1.77062 -1.08352,0 -2.25953,-0.47569 -3.0127,-1.25529 z"
           style="line-height:1.25;fill:#5b9731;fill-opacity:1"
           id="path42971" />
      </g>
    </g>
  </g>
</svg>
